<svg xmlns="http://www.w3.org/2000/svg" version="1.1" xmlns:xlink="http://www.w3.org/1999/xlink" width="24" height="24"><svg xmlns="http://www.w3.org/2000/svg" fill-rule="evenodd" stroke-linejoin="round" stroke-miterlimit="2" clip-rule="evenodd" viewBox="0 0 24 24" width="24" height="24"><path d="M2.25,8.177l0,7.646c0,0.999 0.541,1.919 1.414,2.404c1.752,0.973 5.289,2.938 7,3.889c0.831,0.461 1.841,0.461 2.672,0c1.711,-0.951 5.248,-2.916 7,-3.889c0.873,-0.485 1.414,-1.405 1.414,-2.404l0,-7.646c-0,-0.999 -0.541,-1.919 -1.414,-2.404c-1.752,-0.973 -5.289,-2.938 -7,-3.889c-0.831,-0.461 -1.841,-0.461 -2.672,-0c-1.711,0.951 -5.248,2.916 -7,3.889c-0.873,0.485 -1.414,1.405 -1.414,2.404Zm10.5,-1.535l0,-1.642c-0,-0.414 -0.336,-0.75 -0.75,-0.75c-0.414,0 -0.75,0.336 -0.75,0.75l0,1.642c-0.202,0.057 -0.398,0.138 -0.586,0.242l-2.414,1.341l-0,-0.725c-0,-0.414 -0.336,-0.75 -0.75,-0.75c-0.414,0 -0.75,0.336 -0.75,0.75l0,1.559l-1.614,0.896c-0.362,0.202 -0.493,0.658 -0.292,1.02c0.201,0.362 0.658,0.493 1.02,0.292l0.886,-0.492l0,2.548c0,0.388 0.082,0.764 0.232,1.107l-1.346,0.748c-0.362,0.201 -0.493,0.658 -0.292,1.02c0.201,0.361 0.658,0.492 1.02,0.291l1.597,-0.887c0.065,0.044 0.133,0.086 0.203,0.125l2.292,1.273l-0.62,0.344c-0.362,0.201 -0.493,0.658 -0.292,1.02c0.201,0.362 0.658,0.493 1.02,0.292l1.436,-0.798l1.436,0.798c0.362,0.201 0.819,0.07 1.02,-0.292c0.201,-0.362 0.07,-0.819 -0.292,-1.02l-0.62,-0.344l2.292,-1.273c0.07,-0.039 0.138,-0.081 0.203,-0.125l1.597,0.887c0.362,0.201 0.819,0.07 1.02,-0.291c0.201,-0.362 0.07,-0.819 -0.292,-1.02l-1.346,-0.748c0.15,-0.343 0.232,-0.719 0.232,-1.107l-0,-2.548l0.886,0.492c0.362,0.201 0.819,0.07 1.02,-0.292c0.201,-0.362 0.07,-0.818 -0.292,-1.02l-1.614,-0.896l0,-1.559c-0,-0.414 -0.336,-0.75 -0.75,-0.75c-0.414,0 -0.75,0.336 -0.75,0.75l0,0.725l-2.414,-1.341c-0.188,-0.104 -0.384,-0.185 -0.586,-0.242Zm-0.75,6.896l-0,-0c-0.209,-0 -0.418,0.052 -0.607,0.157l-1.899,1.055l2.506,1.392l2.506,-1.392l-1.899,-1.055c-0.189,-0.105 -0.398,-0.157 -0.607,-0.157Zm0.75,-1.396c0.202,0.057 0.398,0.138 0.586,0.242l2.358,1.31c0.037,-0.118 0.056,-0.243 0.056,-0.371l0,-3.382l-3,-1.666l0,3.867Zm-4.5,-2.201l-0,3.382c0,0.128 0.019,0.253 0.056,0.371l2.358,-1.31c0.188,-0.104 0.384,-0.185 0.586,-0.242l0,-3.867l-3,1.666Z"></path></svg><style>@media (prefers-color-scheme: light) { :root { filter: none; } }
@media (prefers-color-scheme: dark) { :root { filter: invert(100%); } }
</style></svg>